<svg width="182" height="42" viewBox="0 0 182 42" fill="none" xmlns="http://www.w3.org/2000/svg">
<path d="M32.8914 26.7872C32.9014 26.7872 32.9114 26.7872 32.9213 26.7872L32.8914 26.6473L32.8615 26.7872C32.8615 26.7872 32.8715 26.7872 32.8914 26.7872Z" fill="#E94F1E"/>
<path d="M25.5712 25.7577C25.4814 25.8677 25.3916 25.9676 25.3019 26.0676H25.8005C25.7208 25.9576 25.641 25.8577 25.5712 25.7577Z" fill="#E94F1E"/>
<path d="M40.87 26.0676C40.7204 25.8677 40.5708 25.6678 40.4212 25.4579C40.2716 25.6578 40.122 25.8577 39.9824 26.0676H40.87Z" fill="#E94F1E"/>
<path d="M45.8266 4.16801L42.5554 6.81675C42.0169 7.25654 41.4983 7.71632 40.9896 8.1961C40.491 8.67587 40.0123 9.18562 39.6931 9.81532C39.8427 9.10566 40.2915 8.50595 40.7503 7.96621C41.219 7.42646 41.7376 6.9367 42.2861 6.48691C42.8347 6.03712 43.4031 5.61732 44.0015 5.22751C44.58 4.84769 45.1883 4.47787 45.8266 4.16801Z" fill="#2A2866"/>
<path d="M48.9881 7.20657C47.4024 8.59591 45.8166 9.96526 44.3007 11.4046C43.5428 12.1242 42.8147 12.8739 42.1266 13.6535C41.4484 14.4331 40.8001 15.2727 40.4112 16.2523C40.6206 15.2028 41.229 14.2832 41.8673 13.4436C42.5155 12.604 43.2436 11.8244 44.0015 11.0947C44.7695 10.3751 45.5673 9.6754 46.4051 9.02571C47.2428 8.37602 48.0905 7.75631 48.9881 7.20657Z" fill="#2A2866"/>
<path d="M52.4288 11.1247C50.7035 12.3441 48.9881 13.5335 47.3326 14.8129C46.5048 15.4426 45.7069 16.1223 44.929 16.822C44.1711 17.5316 43.443 18.2913 42.9543 19.2308C43.2735 18.2113 43.9716 17.3517 44.6897 16.5821C45.4177 15.8125 46.2255 15.1128 47.0633 14.4631C47.901 13.8234 48.7687 13.2137 49.6663 12.654C50.5639 12.1042 51.4714 11.5745 52.4288 11.1247Z" fill="#2A2866"/>
<path d="M19.8865 4.16801C20.5248 4.47787 21.1331 4.8377 21.7215 5.22751C22.3199 5.60733 22.8784 6.03712 23.4369 6.48691C23.9755 6.94669 24.504 7.42646 24.9728 7.96621C25.4315 8.50595 25.8803 9.10566 26.0299 9.81532C25.7108 9.18562 25.2321 8.67587 24.7334 8.1961C24.2248 7.72632 23.7062 7.25654 23.1676 6.81675L19.8865 4.16801Z" fill="#2A2866"/>
<path d="M16.725 7.20657C17.6226 7.75631 18.4802 8.38601 19.308 9.02571C20.1458 9.6754 20.9336 10.3651 21.7115 11.0947C22.4795 11.8244 23.2075 12.604 23.8458 13.4436C24.4841 14.2832 25.0924 15.2028 25.3019 16.2523C24.9229 15.2627 24.2746 14.4331 23.5865 13.6535C22.8884 12.8739 22.1703 12.1242 21.4124 11.4046C19.8964 9.96526 18.3107 8.59591 16.725 7.20657Z" fill="#2A2866"/>
<path d="M13.2842 11.1247C14.2317 11.5845 15.1492 12.1142 16.0468 12.664C16.9444 13.2137 17.8121 13.8334 18.6498 14.4731C19.4875 15.1228 20.2854 15.8125 21.0234 16.5921C21.7415 17.3617 22.4396 18.2213 22.7587 19.2408C22.27 18.3013 21.542 17.5416 20.784 16.832C20.0161 16.1323 19.2183 15.4526 18.3805 14.8229C16.735 13.5335 15.0096 12.3341 13.2842 11.1247Z" fill="#2A2866"/>
<path d="M21.0134 0L0 14.0133C2.80245 14.5031 5.43537 15.2627 7.86881 16.1823L7.97852 16.1323L8.04833 16.2423C15.1193 18.921 20.425 22.8391 22.8385 24.8182C23.2075 24.4883 23.5466 24.1085 23.8657 23.6887C17.2535 16.6821 5.50518 13.0338 5.50518 13.0338L21.0832 1.8891C23.5067 2.76868 26.5286 5.21752 28.5132 6.99667H29.4507C26.4987 2.96859 21.0134 0 21.0134 0Z" fill="#2A2866"/>
<path d="M44.7595 0C44.7595 0 39.2643 2.96859 36.3123 6.99667H37.2497C39.2344 5.21752 42.2563 2.77868 44.6797 1.8891L60.2578 13.0338C60.2578 13.0338 48.8385 16.5721 42.1864 23.3989C42.4856 23.8786 42.7848 24.3084 43.104 24.6782C45.5873 22.6592 50.8132 18.861 57.7146 16.2423L57.7844 16.1323L57.8842 16.1723C60.3176 15.2627 62.9505 14.4931 65.753 14.0033L44.7595 0Z" fill="#2A2866"/>
<path d="M26.8776 7.62637C26.8776 7.62637 28.1043 10.455 28.3237 14.0133H32.8815H37.4392C37.6586 10.455 38.8953 7.62637 38.8953 7.62637H32.8914H26.8776Z" fill="#411D4E"/>
<path d="M57.2957 17.3517L58.8216 18.7311C51.1423 20.0405 43.463 26.7872 43.463 26.7872C40.0023 24.4883 37.3095 15.1728 37.3095 15.1728H32.8914H28.4733C28.4733 15.1728 27.1768 24.2485 22.3199 26.7872C22.3199 26.7872 14.6406 20.0305 6.96124 18.7311L8.48714 17.3517L3.91943 19.2408C3.91943 19.2408 21.1131 22.9391 30.8469 42C31.1362 41.9 31.3556 41.7501 31.5052 41.5402C31.6647 41.3203 31.7445 41.0005 31.7445 40.5707V33.0243V30.4755H28.6329H28.1642V29.2661H28.6329H28.962C29.9992 29.2661 30.9167 29.0762 31.7345 28.6863C32.5523 28.3065 33.1408 27.8867 33.4898 27.4469H34.3874C34.3575 28.0666 34.3276 28.7963 34.2976 29.6359C34.2677 30.4655 34.2577 31.2151 34.2577 31.8848V33.0243V40.4108C34.2577 40.7506 34.3276 41.0505 34.4772 41.3103C34.5968 41.5302 34.7764 41.7001 34.9858 41.8201C44.7395 22.9191 61.8535 19.2408 61.8535 19.2408L57.2957 17.3517Z" fill="#411D4E"/>
<path d="M79.7253 11.3646H79.087C78.9674 10.9148 78.718 10.435 78.3391 9.91528C77.9601 9.40552 77.601 9.11566 77.252 9.06568C77.0725 9.04569 76.863 9.0257 76.6237 9.01571C76.3743 9.01571 76.1051 9.00571 75.7959 9.00571H73.7614V13.8834H75.1576C75.5765 13.8834 75.9056 13.8434 76.145 13.7535C76.3743 13.6635 76.5738 13.5336 76.7433 13.3436C76.8531 13.2137 76.9628 13.0238 77.0525 12.7539C77.1423 12.4841 77.2121 12.2042 77.232 11.9043H77.8703V16.6721H77.232C77.2121 16.4222 77.1522 16.1323 77.0525 15.8125C76.9528 15.4926 76.8431 15.2627 76.7334 15.1228C76.5638 14.9129 76.3444 14.763 76.0851 14.693C75.8258 14.613 75.5166 14.5731 75.1476 14.5731H73.7514V18.7511C73.7514 18.941 73.7913 19.1109 73.8611 19.2508C73.9309 19.4008 74.0705 19.5207 74.2501 19.6107C74.3398 19.6506 74.5193 19.7006 74.8086 19.7606C75.0978 19.8206 75.3072 19.8505 75.4568 19.8505V20.4603H70.2109V19.8505C70.3805 19.8406 70.6099 19.8206 70.8891 19.7906C71.1783 19.7606 71.3578 19.7306 71.4476 19.6906C71.6171 19.6207 71.7368 19.5107 71.8166 19.3608C71.8964 19.2109 71.9363 19.0409 71.9363 18.831V10.0952C71.9363 9.90528 71.9064 9.74536 71.8465 9.59543C71.7867 9.4455 71.657 9.33555 71.4576 9.2356C71.308 9.16563 71.0985 9.09567 70.8392 9.0357C70.5799 8.97573 70.3705 8.94574 70.2209 8.93574V8.32603H79.7153V11.3646H79.7253Z" fill="#411D4E"/>
<path d="M86.0882 20.4703H80.6329V19.8605C80.7825 19.8505 81.0119 19.8306 81.3011 19.8106C81.5903 19.7906 81.7997 19.7506 81.9194 19.7106C82.1089 19.6406 82.2485 19.5307 82.3283 19.4108C82.4181 19.2808 82.458 19.1009 82.458 18.881V10.0852C82.458 9.88529 82.428 9.71537 82.3682 9.58544C82.3084 9.4555 82.1588 9.33555 81.9194 9.2456C81.7499 9.17563 81.5305 9.11566 81.2712 9.05569C81.0119 8.99572 80.8024 8.95573 80.6329 8.94574V8.32603H86.0882V8.93574C85.9087 8.94574 85.6992 8.96573 85.4599 8.99572C85.2106 9.0357 85.0011 9.07568 84.8216 9.13565C84.6022 9.20562 84.4626 9.31556 84.3828 9.46549C84.313 9.61542 84.2731 9.79533 84.2731 9.97525V18.7611C84.2731 18.951 84.313 19.1209 84.3928 19.2608C84.4725 19.4108 84.6122 19.5207 84.8116 19.6107C84.9313 19.6606 85.1208 19.7106 85.4 19.7606C85.6693 19.8106 85.8987 19.8406 86.0882 19.8505V20.4703Z" fill="#411D4E"/>
<path d="M99.4024 20.4703H96.1411C95.4231 19.3308 94.7649 18.3513 94.1864 17.5317C93.608 16.702 92.9697 15.8524 92.2915 14.9729H91.0548V18.821C91.0548 19.0209 91.0848 19.2009 91.1446 19.3508C91.2044 19.5007 91.3441 19.6207 91.5435 19.7006C91.6433 19.7406 91.8228 19.7806 92.0821 19.8106C92.3414 19.8406 92.5508 19.8605 92.7303 19.8705V20.4802H87.6141V19.8705C87.7537 19.8605 87.9432 19.8406 88.2025 19.8106C88.4618 19.7806 88.6413 19.7406 88.7411 19.7006C88.9106 19.6307 89.0303 19.5207 89.1101 19.3808C89.1899 19.2408 89.2298 19.0509 89.2298 18.831V10.0552C89.2298 9.85531 89.1998 9.67539 89.14 9.52546C89.0802 9.37553 88.9505 9.25559 88.7411 9.17563C88.6014 9.12565 88.412 9.07568 88.1826 9.0357C87.9632 8.97573 87.7637 8.94574 87.6041 8.93574V8.32603H93.1891C93.6977 8.32603 94.1864 8.37601 94.6352 8.48596C95.084 8.59591 95.4929 8.76583 95.8619 8.99572C96.211 9.22561 96.5002 9.52546 96.7096 9.88529C96.9191 10.2551 97.0288 10.6949 97.0288 11.2147C97.0288 11.6844 96.9589 12.0942 96.8193 12.4541C96.6797 12.8139 96.4703 13.1238 96.191 13.3836C95.9317 13.6335 95.6325 13.8434 95.2735 14.0233C94.9144 14.2032 94.5155 14.3532 94.0867 14.4831C94.6851 15.2727 95.1837 15.9424 95.5727 16.4822C95.9716 17.0219 96.4503 17.6816 97.0288 18.4612C97.2781 18.801 97.5075 19.0509 97.7069 19.2208C97.9064 19.3808 98.1059 19.5207 98.3053 19.6207C98.4549 19.6906 98.6344 19.7506 98.8638 19.7906C99.0832 19.8306 99.2727 19.8505 99.4223 19.8605V20.4703H99.4024ZM94.9144 11.4246C94.9144 10.6949 94.705 10.1052 94.2861 9.67539C93.8673 9.2456 93.2689 9.0357 92.5009 9.0357H91.0548V14.2332H92.1718C92.9597 14.2332 93.608 13.9833 94.1365 13.4736C94.6452 12.9738 94.9144 12.2841 94.9144 11.4246Z" fill="#411D4E"/>
<path d="M107.401 14.9029C107.66 15.1928 107.85 15.5026 107.969 15.8425C108.089 16.1823 108.149 16.5721 108.149 17.0319C108.149 18.1014 107.75 18.991 106.962 19.6806C106.174 20.3803 105.187 20.7201 104.02 20.7201C103.481 20.7201 102.943 20.6402 102.394 20.4703C101.856 20.3003 101.387 20.1004 100.998 19.8605L100.629 20.4803H99.9509L99.8312 16.3222H100.519C100.659 16.832 100.828 17.3018 101.018 17.7116C101.207 18.1214 101.457 18.5112 101.776 18.871C102.075 19.2109 102.414 19.4707 102.813 19.6706C103.212 19.8705 103.671 19.9705 104.189 19.9705C104.578 19.9705 104.927 19.9205 105.217 19.8206C105.506 19.7206 105.745 19.5707 105.925 19.3808C106.104 19.1909 106.244 18.971 106.334 18.7211C106.423 18.4712 106.463 18.1714 106.463 17.8415C106.463 17.3517 106.324 16.902 106.054 16.4822C105.785 16.0624 105.376 15.7425 104.838 15.5226C104.469 15.3727 104.04 15.2128 103.561 15.0328C103.082 14.8529 102.674 14.683 102.324 14.5231C101.646 14.2132 101.108 13.8134 100.729 13.3137C100.35 12.8139 100.16 12.1642 100.16 11.3646C100.16 10.9048 100.25 10.475 100.44 10.0752C100.629 9.6754 100.898 9.31557 101.237 9.00572C101.567 8.70586 101.955 8.47597 102.404 8.30605C102.853 8.13613 103.322 8.05617 103.81 8.05617C104.369 8.05617 104.868 8.14612 105.306 8.31604C105.745 8.48596 106.154 8.68587 106.513 8.91576L106.862 8.33603H107.54L107.61 12.3641H106.922C106.792 11.9043 106.653 11.4645 106.503 11.0347C106.344 10.6149 106.144 10.2351 105.895 9.8853C105.646 9.55545 105.356 9.29558 104.997 9.09567C104.648 8.89577 104.209 8.79582 103.701 8.79582C103.162 8.79582 102.703 8.96573 102.314 9.31557C101.936 9.6654 101.746 10.0852 101.746 10.585C101.746 11.1047 101.866 11.5445 102.115 11.8843C102.354 12.2342 102.713 12.514 103.182 12.7339C103.601 12.9338 104.01 13.1038 104.409 13.2537C104.808 13.4036 105.197 13.5535 105.576 13.7235C105.915 13.8734 106.244 14.0433 106.563 14.2232C106.892 14.4231 107.171 14.643 107.401 14.9029Z" fill="#411D4E"/>
<path d="M119.518 11.6245H118.93C118.88 11.4146 118.79 11.1747 118.651 10.8948C118.521 10.6149 118.371 10.3451 118.202 10.0952C118.032 9.83532 117.843 9.60543 117.643 9.40552C117.444 9.20562 117.244 9.09567 117.055 9.06568C116.875 9.04569 116.656 9.0257 116.387 9.01571C116.127 9.00571 115.878 8.99572 115.649 8.99572H115.15V18.7011C115.15 18.891 115.19 19.0609 115.27 19.2208C115.349 19.3808 115.489 19.5007 115.689 19.5807C115.788 19.6207 116.008 19.6706 116.337 19.7406C116.666 19.8106 116.915 19.8505 117.105 19.8505V20.4603H111.39V19.8505C111.55 19.8406 111.789 19.8206 112.118 19.7806C112.447 19.7506 112.667 19.7006 112.796 19.6506C112.986 19.5807 113.125 19.4707 113.205 19.3308C113.295 19.1909 113.335 19.001 113.335 18.7711V8.99572H112.836C112.657 8.99572 112.437 8.99572 112.178 9.00571C111.919 9.01571 111.669 9.0357 111.43 9.06568C111.24 9.08567 111.051 9.20562 110.842 9.40552C110.642 9.60543 110.453 9.83532 110.283 10.0952C110.114 10.3551 109.964 10.6249 109.834 10.9148C109.705 11.2047 109.615 11.4445 109.565 11.6245H108.967V8.32603H119.518V11.6245Z" fill="#411D4E"/>
<path d="M132.234 14.9029C132.493 15.1928 132.683 15.5026 132.802 15.8425C132.922 16.1823 132.982 16.5721 132.982 17.0319C132.982 18.1014 132.583 18.991 131.795 19.6806C131.007 20.3803 130.02 20.7201 128.853 20.7201C128.314 20.7201 127.776 20.6402 127.227 20.4703C126.689 20.3003 126.22 20.1004 125.831 19.8605L125.462 20.4803H124.784L124.664 16.3222H125.352C125.492 16.832 125.662 17.3018 125.851 17.7116C126.041 18.1214 126.29 18.5112 126.609 18.871C126.908 19.2109 127.247 19.4707 127.646 19.6706C128.045 19.8705 128.504 19.9705 129.023 19.9705C129.412 19.9705 129.761 19.9205 130.05 19.8206C130.339 19.7206 130.578 19.5707 130.758 19.3808C130.937 19.1909 131.077 18.971 131.167 18.7211C131.257 18.4712 131.296 18.1714 131.296 17.8415C131.296 17.3517 131.157 16.902 130.888 16.4822C130.618 16.0624 130.209 15.7425 129.671 15.5226C129.302 15.3727 128.873 15.2128 128.394 15.0328C127.916 14.8529 127.507 14.683 127.158 14.5231C126.479 14.2132 125.941 13.8134 125.562 13.3137C125.183 12.8139 124.993 12.1642 124.993 11.3646C124.993 10.9048 125.083 10.475 125.273 10.0752C125.462 9.6754 125.731 9.31557 126.071 9.00572C126.4 8.70586 126.789 8.47597 127.237 8.30605C127.686 8.13613 128.155 8.05617 128.644 8.05617C129.202 8.05617 129.701 8.14612 130.14 8.31604C130.578 8.48596 130.987 8.68587 131.346 8.91576L131.695 8.33603H132.374L132.443 12.3641H131.755C131.626 11.9043 131.486 11.4645 131.336 11.0347C131.177 10.6149 130.977 10.2351 130.728 9.8853C130.479 9.55545 130.189 9.29558 129.83 9.09567C129.471 8.89577 129.043 8.79582 128.534 8.79582C127.995 8.79582 127.537 8.96573 127.148 9.31557C126.769 9.6654 126.579 10.0852 126.579 10.585C126.579 11.1047 126.699 11.5445 126.948 11.8843C127.188 12.2342 127.547 12.514 128.015 12.7339C128.434 12.9338 128.843 13.1038 129.242 13.2537C129.641 13.4036 130.03 13.5535 130.409 13.7235C130.748 13.8734 131.077 14.0433 131.396 14.2232C131.725 14.4231 132.005 14.643 132.234 14.9029Z" fill="#2A2866"/>
<path d="M144.351 11.6245H143.763C143.713 11.4146 143.623 11.1747 143.484 10.8948C143.354 10.6149 143.204 10.3451 143.035 10.0952C142.865 9.83532 142.676 9.60543 142.476 9.40552C142.277 9.20562 142.077 9.09567 141.888 9.06568C141.708 9.04569 141.489 9.0257 141.22 9.01571C140.95 9.00571 140.701 8.99572 140.482 8.99572H139.983V18.7011C139.983 18.891 140.023 19.0609 140.103 19.2208C140.183 19.3808 140.322 19.5007 140.522 19.5807C140.621 19.6207 140.841 19.6706 141.17 19.7406C141.499 19.8106 141.748 19.8505 141.938 19.8505V20.4603H136.223V19.8505C136.383 19.8406 136.622 19.8206 136.951 19.7806C137.28 19.7506 137.5 19.7006 137.629 19.6506C137.819 19.5807 137.959 19.4707 138.038 19.3308C138.128 19.1909 138.168 19.001 138.168 18.7711V8.99572H137.669C137.49 8.99572 137.27 8.99572 137.011 9.00571C136.752 9.01571 136.502 9.0357 136.263 9.06568C136.074 9.08567 135.884 9.20562 135.675 9.40552C135.475 9.60543 135.286 9.83532 135.116 10.0952C134.947 10.3551 134.797 10.6249 134.667 10.9148C134.538 11.2047 134.448 11.4445 134.398 11.6245H133.8V8.32603H144.351V11.6245Z" fill="#2A2866"/>
<path d="M157.556 8.93574C157.396 8.94574 157.167 8.97573 156.858 9.0357C156.548 9.09567 156.299 9.19562 156.11 9.31556C155.92 9.4455 155.781 9.71537 155.711 10.1252C155.641 10.535 155.601 11.0347 155.601 11.6345V16.9119C155.601 17.5816 155.461 18.1713 155.182 18.6611C154.903 19.1609 154.534 19.5607 154.085 19.8805C153.636 20.1904 153.158 20.4103 152.669 20.5402C152.17 20.6702 151.692 20.7401 151.243 20.7401C150.515 20.7401 149.866 20.6402 149.298 20.4503C148.73 20.2604 148.251 20.0005 147.862 19.6806C147.483 19.3508 147.194 18.981 147.004 18.5612C146.815 18.1414 146.715 17.7016 146.715 17.2518V10.0952C146.715 9.89529 146.685 9.72537 146.615 9.59543C146.545 9.46549 146.416 9.33555 146.216 9.22561C146.077 9.14564 145.887 9.08567 145.668 9.0357C145.448 8.98572 145.259 8.95573 145.119 8.94574V8.32603H150.166V8.93574C150.006 8.94574 149.807 8.96573 149.567 9.01571C149.328 9.06568 149.148 9.10566 149.029 9.14564C148.839 9.21561 148.71 9.32556 148.64 9.48548C148.57 9.64541 148.54 9.81533 148.54 10.0052V16.702C148.54 17.0219 148.58 17.3717 148.65 17.7216C148.72 18.0814 148.859 18.4112 149.069 18.7211C149.288 19.0309 149.587 19.2908 149.976 19.4907C150.355 19.6906 150.884 19.7906 151.542 19.7906C152.17 19.7906 152.689 19.6906 153.118 19.4907C153.547 19.2908 153.876 19.0309 154.125 18.7011C154.354 18.3912 154.524 18.0714 154.624 17.7316C154.723 17.3917 154.773 17.0519 154.773 16.712V11.7344C154.773 11.1047 154.723 10.585 154.634 10.1851C154.544 9.78534 154.404 9.51547 154.235 9.39552C154.035 9.25559 153.766 9.14564 153.417 9.06568C153.068 8.98572 152.809 8.93574 152.629 8.92575V8.32603H157.576V8.93574H157.556Z" fill="#2A2866"/>
<path d="M168.038 14.4631C168.038 13.6435 167.928 12.9138 167.708 12.2542C167.489 11.5945 167.18 11.0247 166.761 10.535C166.372 10.0652 165.883 9.70538 165.315 9.43551C164.746 9.16563 164.108 9.0357 163.41 9.0357C163.181 9.0357 162.911 9.0357 162.622 9.04569C162.333 9.05569 162.113 9.06568 161.974 9.06568V18.3912C161.974 18.911 162.123 19.2708 162.423 19.4707C162.722 19.6706 163.191 19.7706 163.809 19.7706C164.527 19.7706 165.165 19.6406 165.704 19.3908C166.242 19.1309 166.681 18.7811 167.02 18.3213C167.369 17.8415 167.629 17.2918 167.788 16.6621C167.958 16.0224 168.038 15.2927 168.038 14.4631ZM170.132 14.4731C170.132 15.5026 169.942 16.4022 169.553 17.1618C169.164 17.9215 168.666 18.5412 168.048 19.0309C167.419 19.5107 166.721 19.8805 165.943 20.1204C165.165 20.3603 164.357 20.4802 163.53 20.4802H158.513V19.8705C158.683 19.8705 158.892 19.8505 159.161 19.8206C159.431 19.7906 159.6 19.7506 159.69 19.7106C159.86 19.6406 159.979 19.5307 160.059 19.3808C160.139 19.2308 160.179 19.0609 160.179 18.851V10.0952C160.179 9.90528 160.149 9.72537 160.079 9.57544C160.009 9.42551 159.879 9.29557 159.69 9.20562C159.51 9.11566 159.321 9.05569 159.122 9.01571C158.912 8.97573 158.743 8.94574 158.593 8.93574V8.32603H163.889C164.617 8.32603 165.335 8.43598 166.043 8.66587C166.751 8.89576 167.359 9.19562 167.888 9.57544C168.596 10.0852 169.155 10.7449 169.563 11.5645C169.922 12.3941 170.132 13.3636 170.132 14.4731Z" fill="#2A2866"/>
<path d="M182 8.93574C181.9 8.94574 181.751 8.97573 181.541 9.05569C181.332 9.12565 181.182 9.19562 181.092 9.26559C180.873 9.40552 180.723 9.50547 180.644 9.58544C180.564 9.6554 180.414 9.85531 180.185 10.1652C179.736 10.7949 179.327 11.4246 178.958 12.0742C178.579 12.7139 178.11 13.5336 177.552 14.5331C177.342 14.9029 177.203 15.1928 177.133 15.4127C177.063 15.6326 177.033 15.9524 177.033 16.3822V18.7011C177.033 18.911 177.073 19.0809 177.153 19.2308C177.233 19.3808 177.372 19.5007 177.572 19.5907C177.692 19.6406 177.901 19.6906 178.21 19.7606C178.519 19.8306 178.769 19.8605 178.948 19.8705V20.4802H173.283V19.8705C173.443 19.8605 173.682 19.8406 174.001 19.8106C174.321 19.7806 174.54 19.7406 174.67 19.6906C174.879 19.6007 175.019 19.4907 175.089 19.3408C175.168 19.1909 175.208 19.0109 175.208 18.791V15.8425C175.208 15.7525 175.148 15.5826 175.039 15.3427C174.929 15.1028 174.799 14.8329 174.64 14.5331C174.301 13.8734 173.922 13.1537 173.503 12.3841C173.084 11.6145 172.725 10.9548 172.416 10.405C172.226 10.0852 172.067 9.83532 171.917 9.6654C171.767 9.49548 171.608 9.35554 171.418 9.22561C171.279 9.13565 171.119 9.07568 170.93 9.0257C170.74 8.97572 170.571 8.95573 170.411 8.93574V8.32603H175.577V8.93574C174.999 8.94574 174.59 8.98572 174.351 9.05569C174.111 9.12565 173.992 9.21561 173.992 9.34555C173.992 9.37554 174.011 9.43551 174.041 9.52546C174.071 9.61542 174.121 9.71537 174.181 9.84531C174.251 9.99524 174.341 10.1652 174.44 10.3551C174.54 10.545 174.64 10.7249 174.73 10.9048C174.999 11.4146 175.268 11.9143 175.547 12.4241C175.827 12.9238 176.186 13.5835 176.634 14.3931C177.522 12.9538 178.21 11.8244 178.679 11.0247C179.148 10.2151 179.387 9.73536 179.387 9.57544C179.387 9.4455 179.337 9.33555 179.237 9.25559C179.138 9.17563 179.008 9.11566 178.848 9.06568C178.699 9.0257 178.519 8.99572 178.33 8.98572C178.14 8.97572 177.961 8.95573 177.791 8.93574V8.32603H182V8.93574Z" fill="#2A2866"/>
<path d="M73.153 32.4246C73.153 32.6744 73.1031 32.8843 73.0134 33.0743C72.9236 33.2542 72.804 33.4041 72.6544 33.524C72.5048 33.644 72.3352 33.7239 72.1457 33.7839C71.9562 33.8439 71.7667 33.8739 71.5673 33.8739H70.3605V33.7239C70.4004 33.7239 70.4503 33.7239 70.5201 33.7139C70.5799 33.704 70.6298 33.694 70.6497 33.684C70.6896 33.664 70.7196 33.644 70.7395 33.604C70.7595 33.564 70.7694 33.524 70.7694 33.4741V31.3651C70.7694 31.3151 70.7595 31.2751 70.7495 31.2351C70.7295 31.1951 70.6996 31.1652 70.6597 31.1452C70.6198 31.1252 70.57 31.1052 70.5201 31.0952C70.4702 31.0852 70.4303 31.0752 70.3905 31.0752V30.9253H71.657C71.8366 30.9253 72.0061 30.9553 72.1756 31.0052C72.3452 31.0552 72.4948 31.1352 72.6145 31.2251C72.784 31.3451 72.9236 31.505 73.0134 31.7049C73.1031 31.9248 73.153 32.1647 73.153 32.4246ZM72.6444 32.4246C72.6444 32.2247 72.6145 32.0547 72.5646 31.8948C72.5147 31.7349 72.4349 31.595 72.3352 31.485C72.2455 31.3751 72.1258 31.2851 71.9862 31.2151C71.8465 31.1552 71.6969 31.1152 71.5274 31.1152C71.4676 31.1152 71.4077 31.1152 71.3379 31.1152C71.2681 31.1152 71.2182 31.1152 71.1783 31.1252V33.3641C71.1783 33.4841 71.2182 33.574 71.288 33.624C71.3578 33.674 71.4675 33.694 71.6171 33.694C71.7867 33.694 71.9463 33.664 72.0759 33.604C72.2056 33.544 72.3153 33.4541 72.3951 33.3441C72.4848 33.2342 72.5447 33.0942 72.5845 32.9443C72.6244 32.8044 72.6444 32.6245 72.6444 32.4246Z" fill="#2A2866"/>
<path d="M78.3092 33.0143L78.2493 33.8739H75.8358V33.7239C75.8757 33.7239 75.9355 33.7139 75.9954 33.704C76.0652 33.694 76.1051 33.684 76.125 33.674C76.1649 33.654 76.1948 33.624 76.2148 33.594C76.2347 33.564 76.2447 33.524 76.2447 33.4641V31.3651C76.2447 31.3151 76.2347 31.2751 76.2248 31.2451C76.2148 31.2151 76.1749 31.1852 76.135 31.1552C76.0951 31.1352 76.0453 31.1252 75.9854 31.1052C75.9256 31.0952 75.8757 31.0852 75.8358 31.0852V30.9353H78.0897V31.6349H77.9402C77.9102 31.535 77.8504 31.425 77.7606 31.3051C77.6709 31.1852 77.5811 31.1252 77.5013 31.1152C77.4614 31.1052 77.4116 31.1052 77.3517 31.1052C77.2919 31.1052 77.2221 31.1052 77.1523 31.1052H76.6935V32.2646H77.0226C77.1323 32.2646 77.2021 32.2546 77.252 32.2347C77.3019 32.2147 77.3418 32.1847 77.3816 32.1347C77.4116 32.0947 77.4415 32.0447 77.4614 31.9748C77.4814 31.9048 77.4914 31.8448 77.5013 31.7849H77.6509V32.9243H77.4914C77.4814 32.8544 77.4714 32.7844 77.4515 32.7144C77.4315 32.6445 77.4016 32.5845 77.3816 32.5545C77.3418 32.5045 77.2919 32.4645 77.242 32.4545C77.1922 32.4346 77.1124 32.4346 77.0226 32.4346H76.6935V33.3041C76.6935 33.3941 76.7035 33.4641 76.7134 33.514C76.7234 33.564 76.7533 33.604 76.7833 33.624C76.8132 33.644 76.863 33.664 76.9329 33.674C76.9927 33.684 77.0825 33.684 77.1922 33.684C77.242 33.684 77.2919 33.684 77.3717 33.684C77.4515 33.684 77.5113 33.684 77.5612 33.674C77.611 33.664 77.6709 33.654 77.7207 33.644C77.7806 33.634 77.8105 33.614 77.8404 33.584C77.9003 33.514 77.9701 33.4141 78.0399 33.2842C78.1097 33.1542 78.1496 33.0543 78.1695 32.9943H78.3092V33.0143Z" fill="#2A2866"/>
<path d="M83.7445 32.4246C83.7445 32.6744 83.6946 32.8843 83.6049 33.0743C83.5151 33.2542 83.3955 33.4041 83.2459 33.524C83.0963 33.644 82.9267 33.7239 82.7372 33.7839C82.5477 33.8439 82.3582 33.8739 82.1588 33.8739H80.952V33.7239C80.9919 33.7239 81.0418 33.7239 81.1116 33.7139C81.1714 33.704 81.2213 33.694 81.2412 33.684C81.2811 33.664 81.3111 33.644 81.331 33.604C81.351 33.564 81.3609 33.524 81.3609 33.4741V31.3651C81.3609 31.3151 81.351 31.2751 81.341 31.2351C81.321 31.1951 81.2911 31.1652 81.2512 31.1452C81.2113 31.1252 81.1615 31.1052 81.1116 31.0952C81.0617 31.0852 81.0218 31.0752 80.9819 31.0752V30.9253H82.2485C82.4281 30.9253 82.5976 30.9553 82.7671 31.0052C82.9367 31.0552 83.0863 31.1352 83.206 31.2251C83.3755 31.3451 83.5151 31.505 83.6049 31.7049C83.6946 31.9248 83.7445 32.1647 83.7445 32.4246ZM83.2359 32.4246C83.2359 32.2247 83.206 32.0547 83.1561 31.8948C83.1062 31.7349 83.0264 31.595 82.9267 31.485C82.837 31.3751 82.7173 31.2851 82.5777 31.2151C82.438 31.1552 82.2884 31.1152 82.1189 31.1152C82.059 31.1152 81.9992 31.1152 81.9294 31.1152C81.8596 31.1152 81.8097 31.1152 81.7698 31.1252V33.3641C81.7698 33.4841 81.8097 33.574 81.8795 33.624C81.9493 33.674 82.059 33.694 82.2086 33.694C82.3782 33.694 82.5378 33.664 82.6674 33.604C82.7971 33.544 82.9068 33.4541 82.9865 33.3441C83.0763 33.2342 83.1361 33.0942 83.176 32.9443C83.2159 32.8044 83.2359 32.6245 83.2359 32.4246Z" fill="#2A2866"/>
<path d="M87.7238 33.8739H86.4173V33.7239C86.4572 33.7239 86.5071 33.7139 86.5769 33.7139C86.6467 33.704 86.6965 33.704 86.7265 33.694C86.7763 33.674 86.8062 33.654 86.8262 33.624C86.8461 33.594 86.8561 33.554 86.8561 33.4941V31.3851C86.8561 31.3351 86.8461 31.2951 86.8362 31.2651C86.8262 31.2351 86.7863 31.2051 86.7265 31.1852C86.6866 31.1652 86.6367 31.1552 86.5669 31.1352C86.5071 31.1252 86.4572 31.1152 86.4173 31.1052V30.9553H87.7238V31.1052C87.6839 31.1052 87.634 31.1152 87.5742 31.1252C87.5143 31.1352 87.4645 31.1452 87.4246 31.1552C87.3747 31.1752 87.3348 31.1951 87.3248 31.2351C87.3049 31.2751 87.2949 31.3151 87.2949 31.3551V33.4641C87.2949 33.514 87.3049 33.554 87.3248 33.584C87.3448 33.624 87.3747 33.644 87.4246 33.664C87.4545 33.674 87.5044 33.684 87.5642 33.704C87.634 33.7139 87.6839 33.7239 87.7338 33.7239V33.8739H87.7238Z" fill="#2A2866"/>
<path d="M91.723 33.9438C91.5535 33.9438 91.3839 33.9139 91.2244 33.8439C91.0648 33.7739 90.9252 33.674 90.8055 33.544C90.6858 33.4141 90.5861 33.2542 90.5163 33.0743C90.4464 32.8943 90.4066 32.6744 90.4066 32.4446C90.4066 32.2147 90.4464 32.0048 90.5163 31.8149C90.5861 31.6249 90.6858 31.465 90.8155 31.3251C90.9351 31.1852 91.0847 31.0852 91.2543 31.0152C91.4238 30.9453 91.6033 30.9053 91.7928 30.9053C91.9324 30.9053 92.0621 30.9253 92.1818 30.9553C92.3015 30.9952 92.4112 31.0452 92.5109 31.1052L92.5907 30.9653H92.7502L92.7702 32.0048H92.6006C92.5807 31.9048 92.5508 31.7949 92.5009 31.6749C92.461 31.555 92.4012 31.455 92.3513 31.3751C92.2815 31.2851 92.2117 31.2051 92.1219 31.1552C92.0322 31.1052 91.9324 31.0752 91.8128 31.0752C91.6831 31.0752 91.5535 31.1052 91.4438 31.1652C91.3341 31.2251 91.2343 31.3151 91.1446 31.425C91.0648 31.535 91.0049 31.6749 90.9551 31.8448C90.9052 32.0148 90.8853 32.2047 90.8853 32.4146C90.8853 32.6045 90.9052 32.7744 90.9551 32.9243C91.0049 33.0842 91.0648 33.2142 91.1545 33.3341C91.2443 33.4541 91.344 33.544 91.4637 33.604C91.5834 33.674 91.713 33.704 91.8626 33.704C91.9723 33.704 92.0721 33.684 92.1718 33.654C92.2616 33.614 92.3413 33.574 92.4112 33.514C92.481 33.4541 92.5408 33.3841 92.5907 33.3041C92.6405 33.2242 92.6804 33.1442 92.7203 33.0543L92.8699 33.1242C92.7502 33.4141 92.6006 33.624 92.4012 33.7439C92.2217 33.8739 91.9923 33.9438 91.723 33.9438Z" fill="#2A2866"/>
<path d="M98.2055 33.8739H96.9988V33.7239C97.1085 33.714 97.1983 33.704 97.2681 33.684C97.3379 33.664 97.3778 33.634 97.3778 33.604C97.3778 33.594 97.3778 33.574 97.3778 33.554C97.3778 33.534 97.3678 33.524 97.3678 33.5041L97.1284 32.8544H96.1112C96.0713 32.9543 96.0414 33.0343 96.0214 33.1042C96.0015 33.1742 95.9716 33.2442 95.9516 33.3041C95.9317 33.3641 95.9217 33.4141 95.9117 33.4441C95.9017 33.4841 95.9017 33.514 95.9017 33.534C95.9017 33.584 95.9416 33.634 96.0314 33.664C96.1212 33.694 96.2109 33.714 96.3206 33.714V33.8639H95.2236V33.714C95.2635 33.714 95.3034 33.704 95.3532 33.694C95.4031 33.684 95.4529 33.664 95.4829 33.644C95.5327 33.604 95.5826 33.564 95.6125 33.524C95.6424 33.4841 95.6724 33.4241 95.7023 33.3541C95.8519 32.9843 96.0114 32.5745 96.191 32.1247C96.3705 31.6649 96.5201 31.2651 96.6597 30.9053H96.8193L97.7867 33.4241C97.8066 33.4741 97.8266 33.524 97.8565 33.554C97.8864 33.584 97.9163 33.624 97.9662 33.654C97.9961 33.674 98.036 33.694 98.0859 33.704C98.1357 33.714 98.1756 33.7239 98.2155 33.7239V33.8739H98.2055ZM97.0287 32.6744L96.5899 31.545L96.1511 32.6744H97.0287Z" fill="#2A2866"/>
<path d="M103.023 31.7449H102.883C102.873 31.6949 102.853 31.6349 102.813 31.565C102.783 31.495 102.743 31.435 102.703 31.3751C102.664 31.3151 102.614 31.2551 102.564 31.2051C102.514 31.1552 102.464 31.1352 102.424 31.1252C102.384 31.1152 102.324 31.1152 102.265 31.1152C102.205 31.1152 102.145 31.1152 102.085 31.1152H101.965V33.4441C101.965 33.4941 101.975 33.534 101.995 33.564C102.015 33.604 102.045 33.634 102.095 33.654C102.115 33.664 102.175 33.674 102.255 33.694C102.334 33.7139 102.394 33.7239 102.434 33.7239V33.8739H101.058V33.7239C101.098 33.7239 101.158 33.7139 101.237 33.704C101.317 33.694 101.367 33.684 101.397 33.674C101.447 33.654 101.477 33.634 101.497 33.594C101.517 33.564 101.527 33.514 101.527 33.4641V31.1152H101.407C101.367 31.1152 101.307 31.1152 101.247 31.1152C101.188 31.1152 101.128 31.1252 101.068 31.1252C101.018 31.1352 100.978 31.1552 100.928 31.2051C100.878 31.2551 100.838 31.3051 100.799 31.3751C100.759 31.435 100.719 31.505 100.689 31.575C100.659 31.6449 100.639 31.7049 100.619 31.7449H100.479V30.9553H103.013V31.7449H103.023Z" fill="#2A2866"/>
<path d="M108.059 33.0143L107.999 33.8739H105.586V33.7239C105.626 33.7239 105.685 33.7139 105.745 33.704C105.815 33.694 105.855 33.684 105.875 33.674C105.915 33.654 105.945 33.624 105.965 33.594C105.985 33.564 105.995 33.524 105.995 33.4641V31.3651C105.995 31.3151 105.985 31.2751 105.975 31.2451C105.965 31.2151 105.925 31.1852 105.885 31.1552C105.845 31.1352 105.795 31.1252 105.735 31.1052C105.675 31.0952 105.626 31.0852 105.586 31.0852V30.9353H107.84V31.6349H107.69C107.66 31.535 107.6 31.425 107.511 31.3051C107.421 31.1852 107.331 31.1252 107.251 31.1152C107.211 31.1052 107.161 31.1052 107.102 31.1052C107.042 31.1052 106.972 31.1052 106.902 31.1052H106.443V32.2646H106.772C106.882 32.2646 106.952 32.2546 107.002 32.2347C107.052 32.2147 107.092 32.1847 107.132 32.1347C107.161 32.0947 107.191 32.0447 107.211 31.9748C107.231 31.9048 107.241 31.8448 107.251 31.7849H107.401V32.9243H107.251C107.241 32.8544 107.231 32.7844 107.211 32.7144C107.191 32.6445 107.161 32.5845 107.142 32.5545C107.102 32.5045 107.052 32.4645 107.002 32.4545C106.952 32.4346 106.872 32.4346 106.782 32.4346H106.453V33.3041C106.453 33.3941 106.463 33.4641 106.473 33.514C106.483 33.564 106.513 33.604 106.543 33.624C106.573 33.644 106.623 33.664 106.693 33.674C106.753 33.684 106.842 33.684 106.952 33.684C107.002 33.684 107.052 33.684 107.132 33.684C107.211 33.684 107.271 33.684 107.321 33.674C107.371 33.664 107.431 33.654 107.481 33.644C107.54 33.634 107.57 33.614 107.6 33.584C107.66 33.514 107.73 33.4141 107.8 33.2842C107.87 33.1542 107.909 33.0543 107.929 32.9943H108.059V33.0143Z" fill="#2A2866"/>
<path d="M113.494 32.4246C113.494 32.6744 113.445 32.8843 113.355 33.0743C113.265 33.2542 113.145 33.4041 112.996 33.524C112.846 33.644 112.677 33.7239 112.487 33.7839C112.298 33.8439 112.108 33.8739 111.909 33.8739H110.702V33.7239C110.742 33.7239 110.792 33.7239 110.861 33.7139C110.921 33.704 110.971 33.694 110.991 33.684C111.031 33.664 111.061 33.644 111.081 33.604C111.101 33.564 111.111 33.524 111.111 33.4741V31.3651C111.111 31.3151 111.101 31.2751 111.091 31.2351C111.071 31.1951 111.041 31.1652 111.001 31.1452C110.961 31.1252 110.911 31.1052 110.861 31.0952C110.812 31.0852 110.772 31.0752 110.732 31.0752V30.9253H111.998C112.178 30.9253 112.347 30.9553 112.517 31.0052C112.687 31.0552 112.836 31.1352 112.956 31.2251C113.125 31.3451 113.265 31.505 113.355 31.7049C113.445 31.9248 113.494 32.1647 113.494 32.4246ZM112.986 32.4246C112.986 32.2247 112.956 32.0547 112.906 31.8948C112.856 31.7349 112.776 31.595 112.677 31.485C112.587 31.3751 112.467 31.2851 112.328 31.2151C112.188 31.1552 112.038 31.1152 111.869 31.1152C111.809 31.1152 111.749 31.1152 111.679 31.1152C111.609 31.1152 111.56 31.1152 111.52 31.1252V33.3641C111.52 33.4841 111.56 33.574 111.629 33.624C111.699 33.674 111.809 33.694 111.959 33.694C112.128 33.694 112.288 33.664 112.417 33.604C112.547 33.544 112.657 33.4541 112.736 33.3441C112.826 33.2342 112.886 33.0942 112.926 32.9443C112.966 32.8044 112.986 32.6245 112.986 32.4246Z" fill="#2A2866"/>
<path d="M121.932 31.7449H121.792C121.782 31.6949 121.762 31.6349 121.722 31.565C121.692 31.495 121.652 31.435 121.613 31.3751C121.573 31.3151 121.523 31.2551 121.473 31.2051C121.423 31.1552 121.373 31.1352 121.333 31.1252C121.293 31.1152 121.234 31.1152 121.174 31.1152C121.114 31.1152 121.054 31.1152 120.994 31.1152H120.875V33.4441C120.875 33.4941 120.885 33.534 120.904 33.564C120.924 33.604 120.954 33.634 121.004 33.654C121.024 33.664 121.084 33.674 121.164 33.694C121.244 33.7139 121.303 33.7239 121.343 33.7239V33.8739H119.967V33.7239C120.007 33.7239 120.067 33.7139 120.147 33.704C120.226 33.694 120.276 33.684 120.306 33.674C120.356 33.654 120.386 33.634 120.406 33.594C120.426 33.564 120.436 33.514 120.436 33.4641V31.1152H120.316C120.276 31.1152 120.216 31.1152 120.156 31.1152C120.097 31.1152 120.037 31.1252 119.977 31.1252C119.927 31.1352 119.887 31.1552 119.837 31.2051C119.787 31.2551 119.748 31.3051 119.708 31.3751C119.668 31.435 119.628 31.505 119.598 31.575C119.568 31.6449 119.548 31.7049 119.528 31.7449H119.389V30.9553H121.922V31.7449H121.932Z" fill="#2A2866"/>
<path d="M126.868 31.2951C126.998 31.425 127.098 31.595 127.168 31.7849C127.237 31.9748 127.277 32.1847 127.277 32.4146C127.277 32.6445 127.237 32.8544 127.168 33.0443C127.098 33.2342 126.988 33.3941 126.858 33.524C126.729 33.654 126.579 33.7539 126.42 33.8239C126.25 33.8939 126.071 33.9338 125.881 33.9338C125.682 33.9338 125.492 33.8939 125.323 33.8239C125.153 33.7439 125.003 33.644 124.884 33.5041C124.764 33.3741 124.664 33.2142 124.595 33.0243C124.525 32.8344 124.485 32.6345 124.485 32.4146C124.485 32.1747 124.525 31.9648 124.595 31.7849C124.664 31.595 124.774 31.435 124.904 31.3051C125.033 31.1752 125.183 31.0652 125.352 30.9952C125.522 30.9253 125.702 30.8853 125.891 30.8853C126.081 30.8853 126.27 30.9253 126.44 30.9952C126.589 31.0652 126.739 31.1652 126.868 31.2951ZM126.559 33.3641C126.639 33.2442 126.689 33.0942 126.729 32.9443C126.759 32.7844 126.779 32.6145 126.779 32.4146C126.779 32.2147 126.759 32.0348 126.719 31.8648C126.679 31.6949 126.619 31.555 126.549 31.435C126.469 31.3151 126.38 31.2251 126.27 31.1652C126.16 31.0952 126.031 31.0652 125.881 31.0652C125.721 31.0652 125.582 31.1052 125.462 31.1752C125.352 31.2551 125.253 31.3551 125.183 31.475C125.113 31.595 125.063 31.7349 125.033 31.8948C125.003 32.0547 124.983 32.2247 124.983 32.4046C124.983 32.6045 125.003 32.7844 125.033 32.9343C125.073 33.0942 125.123 33.2342 125.203 33.3541C125.273 33.4741 125.372 33.564 125.482 33.634C125.592 33.704 125.731 33.7339 125.881 33.7339C126.031 33.7339 126.16 33.704 126.28 33.634C126.39 33.584 126.489 33.4941 126.559 33.3641Z" fill="#2A2866"/>
<path d="M135.804 33.0143L135.744 33.8739H133.331V33.7239C133.371 33.7239 133.431 33.7139 133.491 33.704C133.56 33.694 133.6 33.684 133.62 33.674C133.66 33.654 133.69 33.624 133.71 33.594C133.73 33.564 133.74 33.524 133.74 33.4641V31.3651C133.74 31.3151 133.73 31.2751 133.72 31.2451C133.71 31.2151 133.67 31.1852 133.63 31.1552C133.59 31.1352 133.54 31.1252 133.481 31.1052C133.421 31.0952 133.371 31.0852 133.331 31.0852V30.9353H135.585V31.6349H135.435C135.405 31.535 135.346 31.425 135.256 31.3051C135.166 31.1852 135.076 31.1252 134.997 31.1152C134.957 31.1052 134.907 31.1052 134.847 31.1052C134.787 31.1052 134.717 31.1052 134.647 31.1052H134.189V32.2646H134.518C134.628 32.2646 134.697 32.2546 134.747 32.2347C134.797 32.2147 134.837 32.1847 134.877 32.1347C134.907 32.0947 134.937 32.0447 134.957 31.9748C134.977 31.9048 134.987 31.8448 134.997 31.7849H135.146V32.9243H134.997C134.987 32.8544 134.977 32.7844 134.957 32.7144C134.937 32.6445 134.907 32.5845 134.887 32.5545C134.847 32.5045 134.797 32.4645 134.747 32.4545C134.697 32.4346 134.618 32.4346 134.528 32.4346H134.199V33.3041C134.199 33.3941 134.209 33.4641 134.219 33.514C134.229 33.564 134.258 33.604 134.288 33.624C134.328 33.654 134.368 33.664 134.438 33.674C134.498 33.684 134.588 33.684 134.697 33.684C134.747 33.684 134.797 33.684 134.877 33.684C134.957 33.684 135.016 33.684 135.066 33.674C135.116 33.664 135.176 33.654 135.226 33.644C135.286 33.634 135.316 33.614 135.346 33.584C135.405 33.514 135.475 33.4141 135.545 33.2842C135.615 33.1542 135.655 33.0543 135.675 32.9943H135.804V33.0143Z" fill="#2A2866"/>
<path d="M141.24 33.8739H139.883V33.7239C139.993 33.7239 140.083 33.7139 140.153 33.694C140.222 33.674 140.252 33.644 140.252 33.604C140.252 33.584 140.232 33.544 140.202 33.4741C140.173 33.4141 140.133 33.3341 140.083 33.2542C140.033 33.1642 139.963 33.0643 139.883 32.9443C139.804 32.8244 139.734 32.7144 139.664 32.6045C139.544 32.7644 139.405 32.9543 139.255 33.1842C139.105 33.4041 139.026 33.544 139.026 33.584C139.026 33.634 139.046 33.664 139.085 33.684C139.125 33.704 139.215 33.7139 139.365 33.7239V33.8739H138.278V33.7239C138.318 33.7239 138.357 33.7139 138.417 33.704C138.477 33.694 138.517 33.684 138.557 33.664C138.627 33.624 138.687 33.584 138.726 33.544C138.766 33.504 138.816 33.4441 138.856 33.3841C138.946 33.2642 139.056 33.1142 139.195 32.9343C139.335 32.7544 139.454 32.5945 139.554 32.4446C139.474 32.3246 139.375 32.1847 139.255 32.0048C139.135 31.8248 138.996 31.6349 138.866 31.435C138.806 31.3451 138.766 31.2851 138.726 31.2551C138.697 31.2151 138.647 31.1852 138.597 31.1652C138.567 31.1452 138.517 31.1352 138.457 31.1252C138.397 31.1152 138.357 31.1152 138.318 31.1052V30.9553H139.664V31.1052C139.584 31.1052 139.504 31.1152 139.415 31.1352C139.325 31.1552 139.285 31.1752 139.285 31.2151C139.285 31.2451 139.305 31.2851 139.335 31.3551C139.365 31.425 139.405 31.485 139.454 31.565C139.504 31.6449 139.554 31.7249 139.614 31.8248C139.674 31.9148 139.744 32.0248 139.833 32.1447C139.983 31.9348 140.123 31.7449 140.232 31.575C140.342 31.405 140.402 31.2951 140.402 31.2451C140.402 31.2051 140.372 31.1652 140.322 31.1452C140.272 31.1252 140.183 31.1152 140.063 31.1052V30.9553H141.15V31.1052C141.12 31.1052 141.07 31.1152 141.02 31.1252C140.96 31.1352 140.921 31.1452 140.881 31.1652C140.811 31.1951 140.761 31.2351 140.721 31.2751C140.691 31.3151 140.641 31.3751 140.581 31.445C140.472 31.585 140.372 31.7149 140.282 31.8448C140.193 31.9648 140.083 32.1247 139.953 32.2946C140.063 32.4545 140.183 32.6245 140.322 32.8244C140.462 33.0243 140.581 33.2142 140.711 33.3941C140.751 33.4541 140.801 33.514 140.861 33.574C140.911 33.634 140.96 33.664 140.99 33.684C141.02 33.704 141.07 33.7139 141.12 33.7239C141.17 33.7339 141.22 33.7339 141.26 33.7339V33.8739H141.24Z" fill="#2A2866"/>
<path d="M145.069 33.9438C144.9 33.9438 144.73 33.9139 144.571 33.8439C144.411 33.7739 144.272 33.674 144.152 33.544C144.032 33.4141 143.932 33.2542 143.863 33.0743C143.793 32.8843 143.753 32.6744 143.753 32.4446C143.753 32.2147 143.793 32.0048 143.863 31.8149C143.932 31.6249 144.032 31.465 144.162 31.3251C144.282 31.1852 144.431 31.0852 144.601 31.0152C144.77 30.9453 144.95 30.9053 145.139 30.9053C145.279 30.9053 145.408 30.9253 145.528 30.9553C145.648 30.9952 145.758 31.0452 145.857 31.1052L145.937 30.9653H146.097L146.117 32.0048H145.947C145.927 31.9048 145.897 31.7949 145.847 31.6749C145.807 31.555 145.748 31.455 145.698 31.3751C145.628 31.2851 145.558 31.2051 145.468 31.1552C145.379 31.1052 145.279 31.0752 145.159 31.0752C145.029 31.0752 144.9 31.1052 144.79 31.1652C144.68 31.2251 144.581 31.3151 144.491 31.425C144.411 31.535 144.351 31.6749 144.301 31.8448C144.252 32.0148 144.232 32.2047 144.232 32.4146C144.232 32.6045 144.252 32.7744 144.301 32.9243C144.351 33.0842 144.411 33.2142 144.501 33.3341C144.591 33.4541 144.69 33.544 144.81 33.604C144.93 33.674 145.059 33.704 145.209 33.704C145.319 33.704 145.418 33.684 145.518 33.654C145.608 33.614 145.688 33.574 145.758 33.514C145.827 33.4541 145.887 33.3841 145.937 33.3041C145.987 33.2242 146.027 33.1442 146.067 33.0543L146.216 33.1242C146.097 33.4141 145.947 33.624 145.748 33.7439C145.568 33.8739 145.339 33.9438 145.069 33.9438Z" fill="#2A2866"/>
<path d="M151.283 33.0143L151.223 33.8739H148.809V33.7239C148.849 33.7239 148.909 33.7139 148.969 33.704C149.039 33.694 149.079 33.684 149.099 33.674C149.138 33.654 149.168 33.624 149.188 33.594C149.208 33.564 149.218 33.524 149.218 33.4641V31.3651C149.218 31.3151 149.208 31.2751 149.198 31.2451C149.188 31.2151 149.148 31.1852 149.109 31.1552C149.069 31.1352 149.019 31.1252 148.959 31.1052C148.899 31.0952 148.849 31.0852 148.809 31.0852V30.9353H151.063V31.6349H150.914C150.884 31.535 150.824 31.425 150.734 31.3051C150.644 31.1852 150.555 31.1252 150.475 31.1152C150.435 31.1052 150.385 31.1052 150.325 31.1052C150.265 31.1052 150.196 31.1052 150.126 31.1052H149.667V32.2646H149.996C150.106 32.2646 150.176 32.2546 150.226 32.2347C150.275 32.2147 150.315 32.1847 150.355 32.1347C150.385 32.0947 150.415 32.0447 150.435 31.9748C150.455 31.9048 150.465 31.8448 150.475 31.7849H150.624V32.9243H150.475C150.465 32.8544 150.455 32.7844 150.435 32.7144C150.415 32.6445 150.385 32.5845 150.365 32.5545C150.325 32.5045 150.275 32.4645 150.226 32.4545C150.176 32.4346 150.096 32.4346 150.006 32.4346H149.677V33.3041C149.677 33.3941 149.687 33.4641 149.697 33.514C149.707 33.564 149.737 33.604 149.767 33.624C149.807 33.654 149.847 33.664 149.916 33.674C149.976 33.684 150.066 33.684 150.176 33.684C150.226 33.684 150.275 33.684 150.355 33.684C150.425 33.684 150.495 33.684 150.545 33.674C150.595 33.664 150.654 33.654 150.704 33.644C150.764 33.634 150.794 33.614 150.824 33.584C150.884 33.514 150.954 33.4141 151.023 33.2842C151.093 33.1542 151.133 33.0543 151.153 32.9943H151.283V33.0143Z" fill="#2A2866"/>
<path d="M156.269 33.0043L156.209 33.8739H153.936V33.7239C153.965 33.7239 154.015 33.7139 154.075 33.7139C154.135 33.704 154.185 33.694 154.205 33.684C154.245 33.664 154.275 33.644 154.295 33.604C154.315 33.574 154.324 33.524 154.324 33.4741V31.3851C154.324 31.3351 154.315 31.2951 154.305 31.2651C154.285 31.2251 154.255 31.2051 154.215 31.1752C154.185 31.1552 154.135 31.1452 154.085 31.1252C154.025 31.1052 153.985 31.1052 153.946 31.0952V30.9453H155.172V31.0952C155.132 31.0952 155.082 31.1052 155.023 31.1152C154.963 31.1252 154.913 31.1352 154.893 31.1452C154.843 31.1652 154.813 31.1852 154.793 31.2251C154.773 31.2651 154.763 31.3051 154.763 31.3551V33.3141C154.763 33.4041 154.763 33.4741 154.773 33.524C154.783 33.574 154.803 33.614 154.833 33.644C154.863 33.664 154.913 33.684 154.973 33.694C155.033 33.704 155.122 33.704 155.232 33.704C155.282 33.704 155.332 33.704 155.392 33.704C155.441 33.704 155.501 33.694 155.551 33.684C155.601 33.674 155.641 33.664 155.681 33.654C155.721 33.644 155.751 33.624 155.771 33.604C155.83 33.544 155.89 33.4441 155.97 33.3141C156.04 33.1842 156.1 33.0842 156.13 33.0043H156.269Z" fill="#2A2866"/>
<path d="M161.156 33.0043L161.096 33.8739H158.822V33.7239C158.852 33.7239 158.902 33.7139 158.962 33.7139C159.022 33.704 159.072 33.694 159.092 33.684C159.132 33.664 159.161 33.644 159.181 33.604C159.201 33.574 159.211 33.524 159.211 33.4741V31.3851C159.211 31.3351 159.201 31.2951 159.191 31.2651C159.171 31.2251 159.142 31.2051 159.102 31.1752C159.072 31.1552 159.022 31.1452 158.972 31.1252C158.912 31.1052 158.872 31.1052 158.832 31.0952V30.9453H160.059V31.0952C160.019 31.0952 159.969 31.1052 159.909 31.1152C159.85 31.1252 159.8 31.1352 159.78 31.1452C159.73 31.1652 159.7 31.1852 159.68 31.2251C159.66 31.2651 159.65 31.3051 159.65 31.3551V33.3141C159.65 33.4041 159.65 33.4741 159.66 33.524C159.67 33.574 159.69 33.614 159.72 33.644C159.75 33.664 159.8 33.684 159.86 33.694C159.919 33.704 160.009 33.704 160.119 33.704C160.169 33.704 160.219 33.704 160.278 33.704C160.328 33.704 160.388 33.694 160.438 33.684C160.488 33.674 160.528 33.664 160.568 33.654C160.608 33.644 160.637 33.624 160.657 33.604C160.717 33.544 160.777 33.4441 160.857 33.3141C160.927 33.1842 160.987 33.0842 161.016 33.0043H161.156Z" fill="#2A2866"/>
<path d="M166.153 33.0143L166.093 33.8739H163.679V33.7239C163.719 33.7239 163.779 33.7139 163.839 33.704C163.909 33.694 163.949 33.684 163.968 33.674C164.008 33.654 164.038 33.624 164.058 33.594C164.078 33.564 164.088 33.524 164.088 33.4641V31.3651C164.088 31.3151 164.078 31.2751 164.068 31.2451C164.058 31.2151 164.018 31.1852 163.978 31.1552C163.939 31.1352 163.889 31.1252 163.829 31.1052C163.769 31.0952 163.719 31.0852 163.679 31.0852V30.9353H165.933V31.6349H165.784C165.754 31.535 165.694 31.425 165.604 31.3051C165.514 31.1852 165.425 31.1252 165.345 31.1152C165.305 31.1052 165.255 31.1052 165.195 31.1052C165.135 31.1052 165.066 31.1052 164.996 31.1052H164.537V32.2646H164.866C164.976 32.2646 165.046 32.2546 165.095 32.2347C165.145 32.2147 165.185 32.1847 165.225 32.1347C165.255 32.0947 165.285 32.0447 165.305 31.9748C165.325 31.9048 165.335 31.8448 165.345 31.7849H165.494V32.9243H165.345C165.335 32.8544 165.325 32.7844 165.305 32.7144C165.285 32.6445 165.255 32.5845 165.235 32.5545C165.195 32.5045 165.145 32.4645 165.095 32.4545C165.046 32.4346 164.966 32.4346 164.876 32.4346H164.547V33.3041C164.547 33.3941 164.557 33.4641 164.567 33.514C164.577 33.564 164.607 33.604 164.637 33.624C164.677 33.654 164.716 33.664 164.786 33.674C164.846 33.684 164.936 33.684 165.046 33.684C165.095 33.684 165.145 33.684 165.225 33.684C165.295 33.684 165.365 33.684 165.415 33.674C165.464 33.664 165.524 33.654 165.574 33.644C165.634 33.634 165.664 33.614 165.694 33.584C165.754 33.514 165.823 33.4141 165.893 33.2842C165.963 33.1542 166.003 33.0543 166.023 32.9943H166.153V33.0143Z" fill="#2A2866"/>
<path d="M171.787 31.0952C171.748 31.0952 171.688 31.1052 171.608 31.1252C171.528 31.1452 171.468 31.1652 171.438 31.1852C171.389 31.2151 171.359 31.2851 171.339 31.3851C171.319 31.485 171.309 31.605 171.309 31.7549V33.8939H171.129L169.364 31.505V33.0143C169.364 33.1842 169.374 33.3141 169.394 33.4041C169.414 33.4941 169.444 33.554 169.494 33.594C169.524 33.624 169.593 33.654 169.693 33.674C169.793 33.704 169.853 33.7139 169.893 33.7139V33.8639H168.696V33.7139C168.736 33.7139 168.796 33.694 168.885 33.674C168.975 33.654 169.025 33.624 169.045 33.614C169.095 33.574 169.125 33.514 169.145 33.4341C169.165 33.3541 169.174 33.2242 169.174 33.0343V31.595C169.174 31.535 169.165 31.465 169.145 31.405C169.125 31.3451 169.095 31.2951 169.055 31.2551C169.005 31.2051 168.935 31.1752 168.855 31.1352C168.776 31.0952 168.706 31.0852 168.656 31.0852V30.9353H169.484L171.119 33.1542V31.7849C171.119 31.6149 171.109 31.485 171.089 31.3951C171.069 31.3051 171.039 31.2451 171 31.2151C170.96 31.1852 170.9 31.1652 170.81 31.1352C170.72 31.1152 170.66 31.0952 170.611 31.0952V30.9453H171.797V31.0952H171.787Z" fill="#2A2866"/>
<path d="M175.657 33.9438C175.487 33.9438 175.318 33.9139 175.158 33.8439C174.999 33.7739 174.859 33.674 174.74 33.544C174.62 33.4141 174.52 33.2542 174.45 33.0743C174.38 32.8843 174.341 32.6744 174.341 32.4446C174.341 32.2147 174.38 32.0048 174.45 31.8149C174.52 31.6249 174.62 31.465 174.749 31.3251C174.869 31.1852 175.019 31.0852 175.188 31.0152C175.358 30.9453 175.537 30.9053 175.727 30.9053C175.866 30.9053 175.996 30.9253 176.116 30.9553C176.235 30.9952 176.345 31.0452 176.445 31.1052L176.525 30.9653H176.684L176.704 32.0048H176.535C176.515 31.9048 176.485 31.7949 176.435 31.6749C176.395 31.555 176.335 31.455 176.285 31.3751C176.216 31.2851 176.146 31.2051 176.056 31.1552C175.966 31.1052 175.866 31.0752 175.747 31.0752C175.617 31.0752 175.487 31.1052 175.378 31.1652C175.268 31.2251 175.168 31.3151 175.079 31.425C174.999 31.535 174.939 31.6749 174.889 31.8448C174.839 32.0148 174.819 32.2047 174.819 32.4146C174.819 32.6045 174.839 32.7744 174.889 32.9243C174.939 33.0842 174.999 33.2142 175.089 33.3341C175.178 33.4541 175.278 33.544 175.398 33.604C175.517 33.674 175.647 33.704 175.797 33.704C175.906 33.704 176.006 33.684 176.106 33.654C176.196 33.614 176.275 33.574 176.345 33.514C176.415 33.4541 176.475 33.3841 176.525 33.3041C176.575 33.2242 176.614 33.1442 176.654 33.0543L176.804 33.1242C176.684 33.4141 176.535 33.624 176.335 33.7439C176.156 33.8739 175.926 33.9438 175.657 33.9438Z" fill="#2A2866"/>
<path d="M181.87 33.0143L181.81 33.8739H179.397V33.7239C179.437 33.7239 179.497 33.7139 179.557 33.704C179.626 33.694 179.666 33.684 179.686 33.674C179.726 33.654 179.756 33.624 179.776 33.594C179.796 33.564 179.806 33.524 179.806 33.4641V31.3651C179.806 31.3151 179.796 31.2751 179.786 31.2451C179.776 31.2151 179.736 31.1852 179.696 31.1552C179.656 31.1352 179.606 31.1252 179.547 31.1052C179.487 31.0952 179.437 31.0852 179.397 31.0852V30.9353H181.651V31.6349H181.501C181.471 31.535 181.412 31.425 181.322 31.3051C181.232 31.1852 181.142 31.1252 181.062 31.1152C181.023 31.1052 180.973 31.1052 180.913 31.1052C180.853 31.1052 180.783 31.1052 180.713 31.1052H180.255V32.2646H180.584C180.693 32.2646 180.763 32.2546 180.813 32.2347C180.863 32.2147 180.903 32.1847 180.943 32.1347C180.973 32.0947 181.003 32.0447 181.023 31.9748C181.043 31.9048 181.053 31.8448 181.062 31.7849H181.212V32.9243H181.062C181.053 32.8544 181.043 32.7844 181.023 32.7144C181.003 32.6445 180.973 32.5845 180.953 32.5545C180.913 32.5045 180.863 32.4645 180.813 32.4545C180.763 32.4346 180.684 32.4346 180.594 32.4346H180.265V33.3041C180.265 33.3941 180.275 33.4641 180.285 33.514C180.295 33.564 180.324 33.604 180.354 33.624C180.394 33.654 180.434 33.664 180.504 33.674C180.564 33.684 180.654 33.684 180.763 33.684C180.813 33.684 180.863 33.684 180.943 33.684C181.023 33.684 181.082 33.684 181.132 33.674C181.182 33.664 181.242 33.654 181.292 33.644C181.352 33.634 181.382 33.614 181.412 33.584C181.471 33.514 181.541 33.4141 181.611 33.2842C181.681 33.1542 181.721 33.0543 181.741 32.9943H181.87V33.0143Z" fill="#2A2866"/>
<path d="M181.86 29.8458H70.3605V30.1756H181.86V29.8458Z" fill="#2A2866"/>
<path d="M71.9861 23.9886L72.3153 25.0081H73.3924L72.5247 25.6378L72.8538 26.6573L71.9861 26.0276L71.1185 26.6573L71.4576 25.6378L70.5899 25.0081H71.657L71.9861 23.9886Z" fill="#411D4E"/>
<path d="M77.4116 23.9886L77.7506 25.0081H78.8178L77.9501 25.6378L78.2792 26.6573L77.4116 26.0276L76.5439 26.6573L76.883 25.6378L76.0153 25.0081H77.0824L77.4116 23.9886Z" fill="#411D4E"/>
<path d="M82.837 23.9886L83.1761 25.0081H84.2432L83.3755 25.6378L83.7046 26.6573L82.837 26.0276L81.9793 26.6573L82.3084 25.6378L81.4407 25.0081H82.5079L82.837 23.9886Z" fill="#411D4E"/>
<path d="M169.444 23.9886L169.773 25.0081H170.84L169.972 25.6378L170.311 26.6573L169.444 26.0276L168.576 26.6573L168.905 25.6378L168.038 25.0081H169.115L169.444 23.9886Z" fill="#411D4E"/>
<path d="M174.869 23.9886L175.198 25.0081H176.265L175.408 25.6378L175.737 26.6573L174.869 26.0276L174.002 26.6573L174.331 25.6378L173.463 25.0081H174.54L174.869 23.9886Z" fill="#411D4E"/>
<path d="M180.295 23.9886L180.624 25.0081H181.701L180.833 25.6378L181.162 26.6573L180.295 26.0276L179.427 26.6573L179.756 25.6378L178.888 25.0081H179.965L180.295 23.9886Z" fill="#411D4E"/>
<path d="M87.0456 27.217V23.8586H85.8588V23.4388H88.7211V23.8586H87.5243V27.217H87.0456Z" fill="#411D4E"/>
<path d="M92.1619 25.7477V23.4388H92.6306V25.7377C92.6306 26.4274 92.9996 26.8672 93.6977 26.8672C94.3958 26.8672 94.7649 26.4274 94.7649 25.7377V23.4388H95.2336V25.7377C95.2336 26.6773 94.715 27.277 93.6977 27.277C92.6705 27.277 92.1619 26.6773 92.1619 25.7477Z" fill="#411D4E"/>
<path d="M98.9336 27.217V23.4388H99.4023V27.217H98.9336Z" fill="#411D4E"/>
<path d="M104.04 27.217V23.8586H102.853V23.4388H105.715V23.8586H104.519V27.217H104.04Z" fill="#411D4E"/>
<path d="M109.156 27.217V23.4388H109.625V27.217H109.156Z" fill="#411D4E"/>
<path d="M113.175 25.3279C113.175 24.2085 113.923 23.3789 115.04 23.3789C116.157 23.3789 116.905 24.2185 116.905 25.3279C116.905 26.4474 116.147 27.277 115.04 27.277C113.933 27.277 113.175 26.4474 113.175 25.3279ZM116.437 25.3279C116.437 24.4484 115.898 23.7987 115.05 23.7987C114.203 23.7987 113.664 24.4484 113.664 25.3279C113.664 26.2075 114.203 26.8572 115.05 26.8572C115.888 26.8672 116.437 26.2075 116.437 25.3279Z" fill="#411D4E"/>
<path d="M123.148 27.217L120.954 24.2085V27.217H120.486V23.4388H120.964L123.128 26.3874V23.4388H123.597V27.217H123.148Z" fill="#411D4E"/>
<path d="M131.436 25.3279C131.436 24.1685 132.294 23.3789 133.371 23.3789C134.039 23.3789 134.498 23.6987 134.797 24.1285L134.398 24.3484C134.179 24.0286 133.79 23.7987 133.361 23.7987C132.533 23.7987 131.905 24.4284 131.905 25.3279C131.905 26.2275 132.533 26.8572 133.361 26.8572C133.79 26.8572 134.179 26.6273 134.398 26.3075L134.797 26.5274C134.478 26.9572 134.029 27.277 133.361 27.277C132.284 27.277 131.436 26.4874 131.436 25.3279Z" fill="#411D4E"/>
<path d="M138.228 27.217V23.4388H140.691V23.8586H138.697V25.0781H140.661V25.4979H138.697V26.7972H140.691V27.217H138.228Z" fill="#411D4E"/>
<path d="M146.934 27.217L144.74 24.2085V27.217H144.272V23.4388H144.75L146.914 26.3874V23.4388H147.383V27.217H146.934Z" fill="#411D4E"/>
<path d="M152.021 27.217V23.8586H150.834V23.4388H153.696V23.8586H152.499V27.217H152.021Z" fill="#411D4E"/>
<path d="M159.321 27.217L158.364 25.7178H157.616V27.217H157.147V23.4388H158.663C159.351 23.4388 159.84 23.8786 159.84 24.5783C159.84 25.258 159.381 25.6278 158.862 25.6778L159.879 27.217H159.321ZM159.351 24.5783C159.351 24.1585 159.042 23.8586 158.603 23.8586H157.616V25.298H158.603C159.042 25.298 159.351 24.9981 159.351 24.5783Z" fill="#411D4E"/>
<path d="M163.4 27.217V23.4388H165.863V23.8586H163.869V25.0781H165.833V25.4979H163.869V26.7972H165.863V27.217H163.4Z" fill="#411D4E"/>
</svg>
